<svg xmlns="http://www.w3.org/2000/svg" xmlns:xlink="http://www.w3.org/1999/xlink" width="24" height="24" >  
    <rect id="Rectangle_22935-90" data-name="Rectangle 22935" width="24" height="24" fill="none"/>
      <g id="Group_46606" data-name="Group 46606" transform="translate(-883.089 -403.39)">
        <path id="Path_80168" data-name="Path 80168" d="M900.66,417.05l-.96-.02a5.385,5.385,0,0,0-5.08-3.9l-.66-.01-1.34-.02a5.429,5.429,0,0,0-5.23,3.82,3.9,3.9,0,0,0-3.27,3.71l-.03,1.87a2.27,2.27,0,0,0,.65,1.65,2.439,2.439,0,0,0,1.73.75l.76.01a2.838,2.838,0,0,0,2.65,1.89h.05a2.851,2.851,0,0,0,2.67-1.8l4.64.08a2.862,2.862,0,0,0,2.64,1.86h.05a2.859,2.859,0,0,0,2.66-1.77l1.27.02h.03a1.892,1.892,0,0,0,1.92-1.84l.02-1.16a4.907,4.907,0,0,0-1.39-3.52A5.371,5.371,0,0,0,900.66,417.05Zm3.4,6.27a.123.123,0,0,1-.17.12l-1.16-.02a2.839,2.839,0,0,0-.73-1.35,2.909,2.909,0,0,0-2.02-.88h-.05a2.532,2.532,0,0,0-.83.13h-.01a2.892,2.892,0,0,0-1.89,1.84.84.84,0,0,0-.05.17l-.26-.01-4.17-.07a2.286,2.286,0,0,0-.08-.28,2.909,2.909,0,0,0-.51-.89,2.866,2.866,0,0,0-2.15-1.03h-.05a2.769,2.769,0,0,0-.96.17,2.905,2.905,0,0,0-1.8,1.94l-.67-.01a.757.757,0,0,1-.5-.21.53.53,0,0,1-.16-.4l.03-1.88a2.108,2.108,0,0,1,1.29-1.86,2.308,2.308,0,0,1,.87-.2h.14l.74.01,9.23.15.88.01.87.02.74.01a3.6,3.6,0,0,1,2.55,1.09,3.146,3.146,0,0,1,.9,2.27Zm-3.35,1.56a1.043,1.043,0,0,1-.4.25.887.887,0,0,1-.4.06.985.985,0,0,1-.38-.07,1.218,1.218,0,0,1-.41-.27,1.068,1.068,0,0,1-.3-.62.553.553,0,0,1-.02-.18,1.139,1.139,0,0,1,.27-.69,1.076,1.076,0,0,1,.86-.42h.02a1.132,1.132,0,0,1,.79.35.391.391,0,0,1,.08.1,1.06,1.06,0,0,1,.23.66v.04a.469.469,0,0,1-.02.17A1.012,1.012,0,0,1,900.71,424.88Zm-10-.14a1.144,1.144,0,0,1-.33.23h-.01a1.017,1.017,0,0,1-.46.08.988.988,0,0,1-.45-.1,1,1,0,0,1-.34-.24,1.063,1.063,0,0,1-.3-.65.756.756,0,0,1-.01-.15,1.066,1.066,0,0,1,.28-.72.433.433,0,0,1,.06-.07,1.212,1.212,0,0,1,.32-.22,1.187,1.187,0,0,1,.46-.1h.02a1.133,1.133,0,0,1,.85.42,1.067,1.067,0,0,1,.21.41.729.729,0,0,1,.05.3v.02a.771.771,0,0,1-.02.15A1.076,1.076,0,0,1,890.71,424.74Zm1.44-9.86v2.03l-2.87-.04a3.386,3.386,0,0,1,.73-1A3.577,3.577,0,0,1,892.15,414.88Zm.75,2.05v-2.08l1.69.03a3.626,3.626,0,0,1,3.23,2.12Z" fill="#fff"/>
        <path id="Path_80169" data-name="Path 80169" d="M885.53,412.69l.7-.54,7.26-5.54,6.94,5.42,2.88,2.26,1.15.9a.91.91,0,0,0,.54.19.879.879,0,0,0,.54-1.57l-3.747-2.938V405.5a.875.875,0,0,0-1.75,0v4l0,0-6.53-5.11-9.04,6.92a.87.87,0,0,0,1.06,1.38Z" fill="#fff"/>
      </g>
</svg>
