<svg xmlns="http://www.w3.org/2000/svg" xmlns:xlink="http://www.w3.org/1999/xlink" width="36" height="36" >  
    <g id="Group_47447" data-name="Group 47447">
      <path id="Path_71830" data-name="Path 71830" d="M18,0A18,18,0,1,1,0,18,18,18,0,0,1,18,0Z" fill="#417fd7"/>
      <g id="Group_40407" data-name="Group 40407" transform="translate(6.132 6.133)">
        <g id="Group_40399" data-name="Group 40399">
          <rect id="Rectangle_19560" data-name="Rectangle 19560" width="24" height="24" fill="#fff" opacity="0"/>
          <g id="Group_40398" data-name="Group 40398" transform="translate(0.265 0)">
            <path id="Path_71823" data-name="Path 71823" d="M185.911,290.128a6.543,6.543,0,1,1-6.559,6.545,6.543,6.543,0,0,1,6.559-6.545Zm-11.56-2.506,9.211-7.225c2.214-1.834,3.272-1.154,4.992.194l4.524,3.511v-.477a.663.663,0,0,1,.692-.626h1.8a.664.664,0,0,1,.692.626v2.865a.547.547,0,0,1-.005.08l1.148.891c1.027.965-.266,2.064-1.188,1.254l-8.891-6.9c-1.036-.852-1.412-1.189-2.474-.248l-.061.052-9.244,7.252c-1.09.7-1.936-.519-1.2-1.249Zm13.014-4.63c-1-1-1.584-.958-2.578-.034l-8.669,6.865v5.6a2.457,2.457,0,0,0,2.5,2.286,7.4,7.4,0,1,1,14.624,0h.451a2.474,2.474,0,0,0,2.612-2.289v-5.459l-8.937-6.973Zm1.1,13.681-2.552-2.547-2.553,2.547,2.553,2.547Z" transform="translate(-174.071 -279.28)" fill="#fff" fill-rule="evenodd"/>
          </g>
        </g>
      </g>
  </g>
</svg>
