<svg xmlns="http://www.w3.org/2000/svg" xmlns:xlink="http://www.w3.org/1999/xlink" width="24" height="24" >  
    <rect id="Rectangle_22935-49" data-name="Rectangle 22935" width="24" height="24" fill="none"/>
    <g id="HeThong">
      <path id="Path_100" data-name="Path 100" d="M450.8,2307.4h-3.2a1.6,1.6,0,0,1-1.6-1.6v-3.2a1.6,1.6,0,0,1,1.6-1.6h3.2a1.6,1.6,0,0,1,1.6,1.6v3.2A1.6,1.6,0,0,1,450.8,2307.4Z" transform="translate(-445 -2300)" fill="none" stroke="#000" stroke-linecap="round" stroke-linejoin="round" stroke-miterlimit="10" stroke-width="1"/>
      <path id="Path_101" data-name="Path 101" d="M462.8,2307.4h-3.2a1.6,1.6,0,0,1-1.6-1.6v-3.2a1.6,1.6,0,0,1,1.6-1.6h3.2a1.6,1.6,0,0,1,1.6,1.6v3.2A1.6,1.6,0,0,1,462.8,2307.4Z" transform="translate(-448.4 -2300)" fill="none" stroke="#000" stroke-linecap="round" stroke-linejoin="round" stroke-miterlimit="10" stroke-width="1"/>
      <path id="Path_102" data-name="Path 102" d="M450.8,2319.4h-3.2a1.6,1.6,0,0,1-1.6-1.6v-3.2a1.6,1.6,0,0,1,1.6-1.6h3.2a1.6,1.6,0,0,1,1.6,1.6v3.2A1.6,1.6,0,0,1,450.8,2319.4Z" transform="translate(-445 -2303.4)" fill="none" stroke="#000" stroke-linecap="round" stroke-linejoin="round" stroke-miterlimit="10" stroke-width="1"/>
      <path id="Path_103" data-name="Path 103" d="M462.8,2319.4h-3.2a1.6,1.6,0,0,1-1.6-1.6v-3.2a1.6,1.6,0,0,1,1.6-1.6h3.2a1.6,1.6,0,0,1,1.6,1.6v3.2A1.6,1.6,0,0,1,462.8,2319.4Z" transform="translate(-448.4 -2303.4)" fill="none" stroke="#000" stroke-linecap="round" stroke-linejoin="round" stroke-miterlimit="10" stroke-width="1"/>
    </g>
</svg>