<svg xmlns="http://www.w3.org/2000/svg" xmlns:xlink="http://www.w3.org/1999/xlink" width="24" height="24" >  
   <rect id="Rectangle_22935-65" data-name="Rectangle 22935" width="24" height="24" transform="translate(20 20)" fill="none"/>
      <g id="User" transform="translate(1 1)">
        <circle id="Ellipse_4006" data-name="Ellipse 4006" cx="8" cy="8" r="8" fill="none" stroke="#000" stroke-width="1"/>
        <path id="Subtraction_4" data-name="Subtraction 4" d="M6.08,5.109A8,8,0,0,1,0,2.31,8.033,8.033,0,0,1,3.315,0,3.98,3.98,0,0,0,6.08,1.11,3.983,3.983,0,0,0,8.845,0,8.029,8.029,0,0,1,12.16,2.31,8,8,0,0,1,6.08,5.109Z" transform="translate(1.92 10.89)" fill="none" stroke="#000" stroke-width="1"/>
        <circle id="Ellipse_4007" data-name="Ellipse 4007" cx="4" cy="4" r="4" transform="translate(4 4)" fill="none" stroke="#000" stroke-width="1"/>
      </g>
</svg>